<?xml version="1.0" encoding="utf-8"?>
<!-- Generator: Adobe Illustrator 25.4.1, SVG Export Plug-In . SVG Version: 6.00 Build 0)  -->
<svg version="1.1" id="Layer_1" xmlns="http://www.w3.org/2000/svg" xmlns:xlink="http://www.w3.org/1999/xlink" x="0px" y="0px"
	 viewBox="0 0 612 792" style="enable-background:new 0 0 612 792;" xml:space="preserve">
<style type="text/css">
	.st0{fill:#FFFFFF;}
	.st1{fill:none;stroke:#707071;stroke-width:10;}
	.st2{fill:none;stroke:#707071;stroke-width:5;}
</style>
<g id="Group_1" transform="translate(-730 -194)">
	<g id="Rectangle_1" transform="translate(730 440)">
		<path class="st0" d="M304.48,125.92h4c125.92,0,228,102.08,228,228v66l0,0h-460l0,0v-66C76.48,228,178.56,125.92,304.48,125.92z"
			/>
		<path class="st1" d="M304.48,130.92h4c123.16,0,223,99.84,223,223v56c0,2.76-2.24,5-5,5h-440c-2.76,0-5-2.24-5-5v-56
			C81.48,230.76,181.32,130.92,304.48,130.92z"/>
	</g>
	<line id="Line_1" class="st2" x1="1032.48" y1="565.92" x2="1032.48" y2="319.92"/>
	<path id="Path_63" class="st1" d="M1036.48,565.92v-246"/>
</g>
</svg>
