<?xml version="1.0" encoding="utf-8"?>
<!-- Generator: Adobe Illustrator 25.4.1, SVG Export Plug-In . SVG Version: 6.00 Build 0)  -->
<svg version="1.1" id="Layer_1" xmlns="http://www.w3.org/2000/svg" xmlns:xlink="http://www.w3.org/1999/xlink" x="0px" y="0px"
	 viewBox="0 0 612 792" style="enable-background:new 0 0 612 792;" xml:space="preserve">
<style type="text/css">
	.st0{fill:#757DA6;}
	.st1{fill:#707071;}
	.st2{fill:#FCE75F;}
	.st3{fill:none;}
	.st4{fill:#FFFFFF;}
	.st5{fill:none;stroke:#707071;stroke-width:5;}
</style>
<g id="Group_6" transform="translate(-1583.005 -1346.5)">
	<g id="Path_61" transform="translate(1548 1456.448)">
		<path class="st0" d="M633.11,559.98H49.87c-3.75,0-6.49-1.48-8.37-4.51c-1.93-3.1-2.9-7.73-2.9-13.77c0-4.33,0.51-9.36,1.51-14.95
			c1.01-5.6,2.51-11.79,4.48-18.39c4.04-13.57,9.87-28.55,17.34-44.53c7.82-16.75,17.09-33.83,27.54-50.78
			c11.21-18.18,23.52-35.75,36.59-52.22c14.16-17.85,29.13-34.3,44.48-48.87c16.66-15.82,33.88-29.54,51.18-40.75
			c39.11-25.36,78.72-38.22,117.75-38.22c39.14,0,79.04,12.94,118.57,38.45c17.48,11.28,34.91,25.06,51.8,40.97
			c15.56,14.65,30.74,31.17,45.14,49.1c13.28,16.54,25.81,34.17,37.23,52.4c10.65,17,20.1,34.12,28.08,50.88
			c7.62,16,13.58,30.97,17.71,44.49c2.01,6.59,3.55,12.75,4.58,18.31c1.03,5.56,1.55,10.54,1.55,14.81c0,5.83-0.95,10.29-2.84,13.27
			C639.46,558.57,636.78,559.98,633.11,559.98z"/>
		<path class="st1" d="M633.11,558.48c3.16,0,5.36-1.16,6.93-3.64c0.83-1.32,1.48-3.01,1.91-5.03c0.46-2.12,0.69-4.63,0.69-7.43
			c0-17.29-8.64-45.35-23.7-76.97c-7.96-16.71-17.38-33.77-28-50.73c-11.39-18.18-23.88-35.76-37.13-52.26
			c-14.35-17.88-29.49-34.34-45-48.94c-16.83-15.84-34.18-29.57-51.59-40.8c-39.29-25.35-78.91-38.21-117.76-38.21
			c-38.73,0-78.07,12.78-116.93,37.98c-17.22,11.17-34.37,24.82-50.97,40.58c-15.3,14.53-30.21,30.92-44.33,48.72
			c-13.03,16.43-25.31,33.95-36.49,52.08c-10.43,16.9-19.67,33.94-27.46,50.63c-14.74,31.56-23.19,59.72-23.19,77.24
			c0,2.92,0.24,5.52,0.71,7.73c0.45,2.11,1.11,3.88,1.97,5.26c0.8,1.28,1.74,2.21,2.88,2.83c1.17,0.64,2.59,0.97,4.22,0.97H633.11
			 M633.11,561.48H49.87c-58.35,0,90.96-330.02,289.6-330.02S691.46,561.48,633.11,561.48z"/>
	</g>
	<g>
		<g transform="matrix(1, 0, 0, 1, 1583, 1346.5)">
			<g id="Path_62-3" transform="translate(9 531.67)">
				<path class="st2" d="M297.31,164.54c-41.04,0-80.86-0.95-118.34-2.82c-36.19-1.81-68.69-4.4-96.59-7.7
					c-13.74-1.62-26.21-3.41-37.06-5.31c-10.94-1.91-20.33-3.96-27.9-6.07c-7.64-2.14-13.49-4.36-17.38-6.6
					c-3.55-2.05-5.43-4.11-5.43-5.95c0-1.84,1.88-3.89,5.43-5.95c3.89-2.25,9.73-4.47,17.38-6.6c7.58-2.12,16.96-4.16,27.9-6.07
					c10.86-1.9,23.33-3.69,37.06-5.31c27.9-3.3,60.4-5.89,96.59-7.7c37.48-1.87,77.29-2.82,118.34-2.82s80.86,0.95,118.33,2.82
					c36.19,1.81,68.69,4.4,96.59,7.7c13.74,1.62,26.21,3.41,37.06,5.31c10.94,1.91,20.33,3.96,27.9,6.07
					c7.64,2.14,13.49,4.36,17.38,6.6c3.55,2.05,5.43,4.11,5.43,5.95c0,1.84-1.88,3.89-5.43,5.95c-3.89,2.25-9.74,4.47-17.38,6.6
					c-7.58,2.12-16.96,4.16-27.9,6.07c-10.86,1.9-23.33,3.69-37.06,5.31c-27.9,3.3-60.4,5.89-96.59,7.7
					C378.17,163.59,338.35,164.54,297.31,164.54z"/>
				<path class="st1" d="M297.31,97.14c-41.02,0-80.81,0.95-118.26,2.82c-36.16,1.81-68.62,4.39-96.49,7.69
					c-13.71,1.62-26.15,3.4-36.98,5.3c-10.89,1.9-20.23,3.94-27.76,6.04c-7.52,2.1-13.25,4.27-17.03,6.46
					c-1.74,1-3.03,1.99-3.83,2.93c-0.56,0.65-0.85,1.23-0.85,1.72c0,0.49,0.28,1.07,0.85,1.72c0.81,0.94,2.1,1.92,3.83,2.93
					c3.78,2.18,9.51,4.35,17.03,6.46c7.53,2.1,16.87,4.14,27.76,6.04c10.83,1.89,23.27,3.68,36.98,5.3
					c27.87,3.29,60.34,5.88,96.49,7.69c37.45,1.87,77.24,2.82,118.26,2.82s80.81-0.95,118.26-2.82c36.16-1.81,68.62-4.39,96.49-7.69
					c13.71-1.62,26.15-3.4,36.98-5.3c10.89-1.9,20.23-3.94,27.76-6.04c7.52-2.1,13.25-4.27,17.03-6.46c1.74-1,3.03-1.99,3.83-2.93
					c0.56-0.65,0.85-1.23,0.85-1.72c0-0.49-0.28-1.07-0.85-1.72c-0.81-0.94-2.1-1.92-3.83-2.93c-3.78-2.18-9.51-4.35-17.03-6.46
					c-7.53-2.1-16.87-4.14-27.76-6.04c-10.83-1.89-23.27-3.68-36.98-5.3c-27.87-3.29-60.34-5.88-96.49-7.69
					C378.12,98.08,338.33,97.14,297.31,97.14 M297.31,94.14c168.01,0,304.2,16.1,304.2,35.95s-136.2,35.95-304.2,35.95
					s-304.2-16.1-304.2-35.95S129.3,94.14,297.31,94.14z"/>
			</g>
		</g>
		<g id="Path_62-4" transform="translate(1592.005 1878.166)">
			<path class="st2" d="M297.31,164.54c-41.04,0-80.86-0.95-118.34-2.82c-36.19-1.81-68.69-4.4-96.59-7.7
				c-13.74-1.62-26.21-3.41-37.06-5.31c-10.94-1.91-20.33-3.96-27.9-6.07c-7.64-2.14-13.49-4.36-17.38-6.6
				c-3.55-2.05-5.43-4.11-5.43-5.95c0-1.84,1.88-3.89,5.43-5.95c3.89-2.25,9.73-4.47,17.38-6.6c7.58-2.12,16.96-4.16,27.9-6.07
				c10.86-1.9,23.33-3.69,37.06-5.31c27.9-3.3,60.4-5.89,96.59-7.7c37.48-1.87,77.29-2.82,118.34-2.82s80.86,0.95,118.33,2.82
				c36.19,1.81,68.69,4.4,96.59,7.7c13.74,1.62,26.21,3.41,37.06,5.31c10.94,1.91,20.33,3.96,27.9,6.07
				c7.64,2.14,13.49,4.36,17.38,6.6c3.55,2.05,5.43,4.11,5.43,5.95c0,1.84-1.88,3.89-5.43,5.95c-3.89,2.25-9.74,4.47-17.38,6.6
				c-7.58,2.12-16.96,4.16-27.9,6.07c-10.86,1.9-23.33,3.69-37.06,5.31c-27.9,3.3-60.4,5.89-96.59,7.7
				C378.17,163.59,338.35,164.54,297.31,164.54z"/>
			<path class="st2" d="M297.31,97.14c-41.02,0-80.81,0.95-118.26,2.82c-36.16,1.81-68.62,4.39-96.49,7.69
				c-13.71,1.62-26.15,3.4-36.98,5.3c-10.89,1.9-20.23,3.94-27.76,6.04c-7.52,2.1-13.25,4.27-17.03,6.46
				c-1.74,1-3.03,1.99-3.83,2.93c-0.56,0.65-0.85,1.23-0.85,1.72c0,0.49,0.28,1.07,0.85,1.72c0.81,0.94,2.1,1.92,3.83,2.93
				c3.78,2.18,9.51,4.35,17.03,6.46c7.53,2.1,16.87,4.14,27.76,6.04c10.83,1.89,23.27,3.68,36.98,5.3
				c27.87,3.29,60.34,5.88,96.49,7.69c37.45,1.87,77.24,2.82,118.26,2.82s80.81-0.95,118.26-2.82c36.16-1.81,68.62-4.39,96.49-7.69
				c13.71-1.62,26.15-3.4,36.98-5.3c10.89-1.9,20.23-3.94,27.76-6.04c7.52-2.1,13.25-4.27,17.03-6.46c1.74-1,3.03-1.99,3.83-2.93
				c0.56-0.65,0.85-1.23,0.85-1.72c0-0.49-0.28-1.07-0.85-1.72c-0.81-0.94-2.1-1.92-3.83-2.93c-3.78-2.18-9.51-4.35-17.03-6.46
				c-7.53-2.1-16.87-4.14-27.76-6.04c-10.83-1.89-23.27-3.68-36.98-5.3c-27.87-3.29-60.34-5.88-96.49-7.69
				C378.12,98.08,338.33,97.14,297.31,97.14 M297.31,94.14c168.01,0,304.2,16.1,304.2,35.95s-136.2,35.95-304.2,35.95
				s-304.2-16.1-304.2-35.95S129.3,94.14,297.31,94.14z"/>
		</g>
		<g transform="matrix(1, 0, 0, 1, 1583, 1346.5)">
			<g id="Path_62-5" transform="translate(9 531.67)">
				<path class="st3" d="M297.31,164.54c-41.04,0-80.86-0.95-118.34-2.82c-36.19-1.81-68.69-4.4-96.59-7.7
					c-13.74-1.62-26.21-3.41-37.06-5.31c-10.94-1.91-20.33-3.96-27.9-6.07c-7.64-2.14-13.49-4.36-17.38-6.6
					c-3.55-2.05-5.43-4.11-5.43-5.95c0-1.84,1.88-3.89,5.43-5.95c3.89-2.25,9.73-4.47,17.38-6.6c7.58-2.12,16.96-4.16,27.9-6.07
					c10.86-1.9,23.33-3.69,37.06-5.31c27.9-3.3,60.4-5.89,96.59-7.7c37.48-1.87,77.29-2.82,118.34-2.82s80.86,0.95,118.33,2.82
					c36.19,1.81,68.69,4.4,96.59,7.7c13.74,1.62,26.21,3.41,37.06,5.31c10.94,1.91,20.33,3.96,27.9,6.07
					c7.64,2.14,13.49,4.36,17.38,6.6c3.55,2.05,5.43,4.11,5.43,5.95c0,1.84-1.88,3.89-5.43,5.95c-3.89,2.25-9.74,4.47-17.38,6.6
					c-7.58,2.12-16.96,4.16-27.9,6.07c-10.86,1.9-23.33,3.69-37.06,5.31c-27.9,3.3-60.4,5.89-96.59,7.7
					C378.17,163.59,338.35,164.54,297.31,164.54z"/>
				<path class="st4" d="M297.31,97.14c-41.02,0-80.81,0.95-118.26,2.82c-36.16,1.81-68.62,4.39-96.49,7.69
					c-13.71,1.62-26.15,3.4-36.98,5.3c-10.89,1.9-20.23,3.94-27.76,6.04c-7.52,2.1-13.25,4.27-17.03,6.46
					c-1.74,1-3.03,1.99-3.83,2.93c-0.56,0.65-0.85,1.23-0.85,1.72c0,0.49,0.28,1.07,0.85,1.72c0.81,0.94,2.1,1.92,3.83,2.93
					c3.78,2.18,9.51,4.35,17.03,6.46c7.53,2.1,16.87,4.14,27.76,6.04c10.83,1.89,23.27,3.68,36.98,5.3
					c27.87,3.29,60.34,5.88,96.49,7.69c37.45,1.87,77.24,2.82,118.26,2.82s80.81-0.95,118.26-2.82c36.16-1.81,68.62-4.39,96.49-7.69
					c13.71-1.62,26.15-3.4,36.98-5.3c10.89-1.9,20.23-3.94,27.76-6.04c7.52-2.1,13.25-4.27,17.03-6.46c1.74-1,3.03-1.99,3.83-2.93
					c0.56-0.65,0.85-1.23,0.85-1.72c0-0.49-0.28-1.07-0.85-1.72c-0.81-0.94-2.1-1.92-3.83-2.93c-3.78-2.18-9.51-4.35-17.03-6.46
					c-7.53-2.1-16.87-4.14-27.76-6.04c-10.83-1.89-23.27-3.68-36.98-5.3c-27.87-3.29-60.34-5.88-96.49-7.69
					C378.12,98.08,338.33,97.14,297.31,97.14 M297.31,94.14c168.01,0,304.2,16.1,304.2,35.95s-136.2,35.95-304.2,35.95
					s-304.2-16.1-304.2-35.95S129.3,94.14,297.31,94.14z"/>
			</g>
		</g>
		<g id="Path_62-6" transform="translate(1592.005 1878.166)">
			<path class="st3" d="M297.31,164.54c-41.04,0-80.86-0.95-118.34-2.82c-36.19-1.81-68.69-4.4-96.59-7.7
				c-13.74-1.62-26.21-3.41-37.06-5.31c-10.94-1.91-20.33-3.96-27.9-6.07c-7.64-2.14-13.49-4.36-17.38-6.6
				c-3.55-2.05-5.43-4.11-5.43-5.95c0-1.84,1.88-3.89,5.43-5.95c3.89-2.25,9.73-4.47,17.38-6.6c7.58-2.12,16.96-4.16,27.9-6.07
				c10.86-1.9,23.33-3.69,37.06-5.31c27.9-3.3,60.4-5.89,96.59-7.7c37.48-1.87,77.29-2.82,118.34-2.82s80.86,0.95,118.33,2.82
				c36.19,1.81,68.69,4.4,96.59,7.7c13.74,1.62,26.21,3.41,37.06,5.31c10.94,1.91,20.33,3.96,27.9,6.07
				c7.64,2.14,13.49,4.36,17.38,6.6c3.55,2.05,5.43,4.11,5.43,5.95c0,1.84-1.88,3.89-5.43,5.95c-3.89,2.25-9.74,4.47-17.38,6.6
				c-7.58,2.12-16.96,4.16-27.9,6.07c-10.86,1.9-23.33,3.69-37.06,5.31c-27.9,3.3-60.4,5.89-96.59,7.7
				C378.17,163.59,338.35,164.54,297.31,164.54z"/>
			<path class="st1" d="M297.31,97.14c-41.02,0-80.81,0.95-118.26,2.82c-36.16,1.81-68.62,4.39-96.49,7.69
				c-13.71,1.62-26.15,3.4-36.98,5.3c-10.89,1.9-20.23,3.94-27.76,6.04c-7.52,2.1-13.25,4.27-17.03,6.46
				c-1.74,1-3.03,1.99-3.83,2.93c-0.56,0.65-0.85,1.23-0.85,1.72c0,0.49,0.28,1.07,0.85,1.72c0.81,0.94,2.1,1.92,3.83,2.93
				c3.78,2.18,9.51,4.35,17.03,6.46c7.53,2.1,16.87,4.14,27.76,6.04c10.83,1.89,23.27,3.68,36.98,5.3
				c27.87,3.29,60.34,5.88,96.49,7.69c37.45,1.87,77.24,2.82,118.26,2.82s80.81-0.95,118.26-2.82c36.16-1.81,68.62-4.39,96.49-7.69
				c13.71-1.62,26.15-3.4,36.98-5.3c10.89-1.9,20.23-3.94,27.76-6.04c7.52-2.1,13.25-4.27,17.03-6.46c1.74-1,3.03-1.99,3.83-2.93
				c0.56-0.65,0.85-1.23,0.85-1.72c0-0.49-0.28-1.07-0.85-1.72c-0.81-0.94-2.1-1.92-3.83-2.93c-3.78-2.18-9.51-4.35-17.03-6.46
				c-7.53-2.1-16.87-4.14-27.76-6.04c-10.83-1.89-23.27-3.68-36.98-5.3c-27.87-3.29-60.34-5.88-96.49-7.69
				C378.12,98.08,338.33,97.14,297.31,97.14 M297.31,94.14c168.01,0,304.2,16.1,304.2,35.95s-136.2,35.95-304.2,35.95
				s-304.2-16.1-304.2-35.95S129.3,94.14,297.31,94.14z"/>
		</g>
	</g>
	<line id="Line_17" class="st5" x1="1883.09" y1="1688.15" x2="1883.09" y2="1440.64"/>
</g>
</svg>
