<?xml version="1.0" encoding="utf-8"?>
<!-- Generator: Adobe Illustrator 25.4.1, SVG Export Plug-In . SVG Version: 6.00 Build 0)  -->
<svg version="1.1" id="Layer_1" xmlns="http://www.w3.org/2000/svg" xmlns:xlink="http://www.w3.org/1999/xlink" x="0px" y="0px"
	 viewBox="0 0 612 792" style="enable-background:new 0 0 612 792;" xml:space="preserve">
<style type="text/css">
	.st0{fill:#F7F7F7;}
	.st1{fill:none;stroke:#707071;stroke-width:5;}
	.st2{fill:#FFFFFF;}
	.st3{fill:none;stroke:#707071;stroke-width:2;}
	.st4{fill:none;stroke:#757DA6;stroke-width:3;}
</style>
<g id="Rectangle_9">
	<rect x="98.48" y="79.92" class="st0" width="416" height="632"/>
	<rect x="100.98" y="82.42" class="st1" width="411" height="627"/>
</g>
<g id="Rectangle_10" transform="translate(34 37)">
	<rect x="98.48" y="79.92" class="st2" width="348" height="558"/>
	<rect x="99.48" y="80.92" class="st3" width="346" height="556"/>
</g>
<path id="Path_64" class="st4" d="M403.35,610.13c-152-24-208,86-160-26s42-96,22-178s-132-10,0-96s42-186,84-38s88,174,20,180
	s-88-4-60-66s-12-162-66-186s-20,272-60,278s46,154,126,106s30,50,80-88s68-98,30-172s-30-88-16-124"/>
</svg>
