<?xml version="1.0" encoding="utf-8"?>
<!-- Generator: Adobe Illustrator 25.4.1, SVG Export Plug-In . SVG Version: 6.00 Build 0)  -->
<svg version="1.1" id="Layer_1" xmlns="http://www.w3.org/2000/svg" xmlns:xlink="http://www.w3.org/1999/xlink" x="0px" y="0px"
	 viewBox="0 0 612 792" style="enable-background:new 0 0 612 792;" xml:space="preserve">
<style type="text/css">
	.st0{fill:none;}
	.st1{fill:#707071;}
	.st2{fill:none;stroke:#707071;stroke-width:10;}
</style>
<g id="Path_60" transform="translate(52.99 475.92)">
	<path class="st0" d="M125.56,141.15h234c2.76,0,5,2.24,5,5v8c0,2.76-2.24,5-5,5h-234c-2.76,0-5-2.24-5-5v-8
		C120.56,143.39,122.8,141.15,125.56,141.15z"/>
	<path class="st1" d="M125.56,141.15h234c2.76,0,5,2.24,5,5v8c0,2.76-2.24,5-5,5h-234c-2.76,0-5-2.24-5-5v-8
		C120.56,143.39,122.8,141.15,125.56,141.15z"/>
</g>
<g id="Path_47" transform="translate(26.99 8)">
	<path class="st0" d="M140.56,141.15c0,0,64.33,8,128.33,8s127.67-8,127.67-8c7.47,0-55,53-68,120c-5.15,31.13,96.25,56,112,144
		s-35.19,208-49,208h-246c-13.81,0-64.75-120-49-208s116.8-113.8,112-144C197.81,193.53,132.89,141.15,140.56,141.15z"/>
	<path class="st1" d="M375.35,153.49c-24.45,2.38-65.56,5.66-106.46,5.66c-40.66,0-81.79-3.24-106.49-5.62
		c18.78,21.95,48.75,60.25,56.03,106.05c2.86,18-14.58,31.21-36.66,47.94c-29.68,22.48-66.61,50.45-75.37,99.39
		c-13.82,77.21,27.36,182.43,41.45,196.24h241.41c14.1-13.81,55.27-119.03,41.45-196.24c-8.69-48.58-45.4-76.27-74.9-98.52
		c-22.45-16.94-40.19-30.32-37.07-49.14C327.53,213.94,357.32,175.26,375.35,153.49 M140.56,141.15c0,0,64.33,8,128.33,8
		s127.67-8,127.67-8c7.47,0-55,53-68,120c-5.15,31.13,96.25,56,112,144s-35.19,208-49,208h-246c-13.81,0-64.75-120-49-208
		s116.8-113.8,112-144C197.81,193.53,132.89,141.15,140.56,141.15z"/>
</g>
<g id="Ellipse_9" transform="translate(46.99)">
	<ellipse class="st0" cx="248.56" cy="149.15" rx="128" ry="8"/>
	<ellipse class="st2" cx="248.56" cy="149.15" rx="123" ry="3"/>
</g>
</svg>
